<?xml version="1.0" encoding="utf-8"?>
<!-- Generator: Adobe Illustrator 16.0.3, SVG Export Plug-In . SVG Version: 6.00 Build 0)  -->
<!DOCTYPE svg PUBLIC "-//W3C//DTD SVG 1.1//EN" "http://www.w3.org/Graphics/SVG/1.1/DTD/svg11.dtd">
<svg version="1.1" id="Layer_1" xmlns="http://www.w3.org/2000/svg" xmlns:xlink="http://www.w3.org/1999/xlink" x="0px" y="0px"
	 width="595.28px" height="841.89px" viewBox="0 0 595.28 841.89" enable-background="new 0 0 595.28 841.89" xml:space="preserve">
<g>
	
		<image overflow="visible" opacity="0.75" width="2356" height="2763" xlink:href="A55D03DC.png"  transform="matrix(0.24 0 0 0.24 30.3452 100.5)">
	</image>
	<g>
		<g>
			<path fill="#AAC149" stroke="#010101" stroke-width="3" stroke-miterlimit="10" d="M453.229,317.049H142.77
				c-6.905,0-12.504,5.598-12.504,12.504v260.345c0,6.906,5.599,12.504,12.504,12.504h55.348v87.736
				c0,20.357,16.502,36.861,36.859,36.861l0,0c20.357,0,36.861-16.502,36.861-36.861v-87.736h51.555v87.736
				c0,20.357,16.502,36.861,36.861,36.861l0,0c20.355,0,36.859-16.502,36.859-36.861v-87.736h56.117
				c6.906,0,12.504-5.598,12.504-12.504V329.553C465.733,322.647,460.136,317.049,453.229,317.049z"/>
			<path fill="#AAC149" stroke="#010101" stroke-width="3" stroke-miterlimit="10" d="M77.706,316.988L77.706,316.988
				c-20.357,0-36.86,16.503-36.86,36.86v149.712c0,20.357,16.502,36.859,36.86,36.859l0,0c20.356,0,36.86-16.502,36.86-36.859
				V353.848C114.564,333.492,98.062,316.988,77.706,316.988z"/>
			<path fill="#AAC149" stroke="#010101" stroke-width="3" stroke-miterlimit="10" d="M518.296,316.988L518.296,316.988
				c-20.357,0-36.861,16.503-36.861,36.86v149.712c0,20.357,16.502,36.859,36.861,36.859l0,0c20.355,0,36.859-16.502,36.859-36.859
				V353.848C555.155,333.492,538.653,316.988,518.296,316.988z"/>
			<path fill="#AAC149" stroke="#010101" stroke-width="3" stroke-miterlimit="10" d="M145.283,298.79h304.701
				c7.949,0,13.879-7.322,12.246-15.103c-10.08-48.037-40.664-88.52-82.164-111.905l26.049-46.999
				c1.762-3.182,0.613-7.192-2.568-8.955c-3.189-1.767-7.193-0.613-8.957,2.568l-26.244,47.353
				c-21.496-9.976-45.453-15.547-70.711-15.547c-25.26,0-49.217,5.571-70.713,15.547l-26.244-47.354
				c-1.766-3.184-5.775-4.332-8.955-2.569c-3.182,1.763-4.332,5.773-2.568,8.955L215.2,171.78
				c-41.5,23.387-72.083,63.868-82.163,111.907C131.404,291.467,137.333,298.79,145.283,298.79z M388.552,228.747
				c0,7.824-6.342,14.169-14.168,14.169c-7.824,0-14.17-6.343-14.17-14.169c0-7.825,6.344-14.169,14.17-14.169
				S388.552,220.922,388.552,228.747z M220.88,214.578c7.824,0,14.17,6.343,14.17,14.169c0,7.824-6.344,14.169-14.17,14.169
				c-7.824,0-14.168-6.343-14.168-14.169C206.712,220.922,213.054,214.578,220.88,214.578z"/>
		</g>
	</g>
</g>
</svg>
